Coordinates
version=1
nRows=5
nColumns=40
inDegrees=yes

Units are S.I. units (second, meters, Newtons, ...)
Angles are in degrees.

endheader
time	pelvis_tilt	pelvis_list	pelvis_rotation	pelvis_tx	pelvis_ty	pelvis_tz	hip_flexion_r	hip_adduction_r	hip_rotation_r	knee_angle_r	knee_angle_r_beta	ankle_angle_r	subtalar_angle_r	mtp_angle_r	hip_flexion_l	hip_adduction_l	hip_rotation_l	knee_angle_l	knee_angle_l_beta	ankle_angle_l	subtalar_angle_l	mtp_angle_l	lumbar_extension	lumbar_bending	lumbar_rotation	arm_flex_r	arm_add_r	arm_rot_r	elbow_flex_r	pro_sup_r	wrist_flex_r	wrist_dev_r	arm_flex_l	arm_add_l	arm_rot_l	elbow_flex_l	pro_sup_l	wrist_flex_l	wrist_dev_l
     33.35000000	     -5.21694949	     -4.10378874	      4.39563947	      1.04506710	      0.91360184	      0.57914894	     16.81740678	      3.16480577	     -9.87972663	     29.28325316	     29.28325316	     18.37160606	     -7.20609810	     -0.28752062	     27.04224044	    -16.34187051	      3.89758629	     61.88411232	     61.88411232	      5.41892897	    -12.15606468	      1.83892648	    -10.00224341	      2.39265156	      0.03819756	     25.42017171	    -29.74173906	    -12.30498100	     78.85271827	     45.39007785	      0.00000000	      0.00000000	    -10.55036510	    -10.16474180	     13.65229237	     28.64386969	     45.00071213	      0.00000000	      0.00000000
     33.37078571	     -4.96483832	     -3.96845856	      5.12139316	      1.04398775	      0.91144430	      0.58060027	     16.91104645	      3.22867243	     -9.57578222	     30.37965979	     30.37965979	     18.95903749	     -8.95077388	     -0.15464146	     28.52098845	    -15.80439127	      5.01588501	     62.62689453	     62.62689453	      5.92753692	    -13.88392096	      2.35090732	    -10.21972889	      2.37473524	      0.30605626	     27.99896074	    -29.15151302	    -12.71425846	     78.99390033	     45.40979577	      0.00000000	      0.00000000	    -11.49543102	     -9.53694994	     14.40630779	     27.39147684	     44.88530847	      0.00000000	      0.00000000
     33.39157143	     -4.72681195	     -3.85527831	      5.90558237	      1.04289840	      0.90946279	      0.58186171	     16.93264046	      3.23936722	     -9.58457407	     31.35386723	     31.35386723	     19.53320403	    -10.23998005	     -0.13365543	     29.95471024	    -15.22881544	      6.11000494	     62.95303964	     62.95303964	      6.37903460	    -15.59348233	      2.98525116	    -10.39953666	      2.40643497	      0.75651671	     30.53514278	    -28.89429141	    -13.10568924	     79.07472490	     45.43082161	      0.00000000	      0.00000000	    -12.61018454	     -9.02322199	     15.06212864	     26.99429948	     44.76839370	      0.00000000	      0.00000000
     33.41235714	     -4.43039593	     -3.78155141	      6.71732508	      1.04190585	      0.90804859	      0.58296700	     16.71220553	      3.30818414	     -9.66128033	     32.01827820	     32.01827820	     20.18401402	    -11.24819423	      0.31274889	     31.20759152	    -14.74754716	      7.03357805	     62.77447778	     62.77447778	      7.42278530	    -16.55179520	      4.94843771	    -10.58625337	      2.50914696	      0.50566588	     34.35257938	    -27.73364582	    -13.13243239	     77.29412788	     45.50237549	      0.00000000	      0.00000000	    -14.21530425	     -8.80271279	     17.23298552	     27.38770977	     44.40222708	      0.00000000	      0.00000000
     33.43314286	     -4.28518812	     -3.63638137	      7.53361071	      1.04102569	      0.90710889	      0.58372806	     16.49014890	      3.26497694	     -9.80947745	     32.40382366	     32.40382366	     20.55035843	    -12.18744737	      0.42613531	     32.29511624	    -14.14662990	      7.74519957	     61.74812827	     61.74812827	      7.84795168	    -17.66645286	      5.74088204	    -10.66889443	      2.52880939	      0.93928541	     36.59781232	    -27.59299203	    -13.19082083	     77.80595573	     45.49608437	      0.00000000	      0.00000000	    -15.34723640	     -8.42541163	     18.06557926	     27.44444974	     44.25973128	      0.00000000	      0.00000000
